<svg height="512" viewBox="0 0 64 64" width="512" xmlns="http://www.w3.org/2000/svg"><path d="m61 7h-3v-2a1 1 0 0 0 -1-1h-9.586l-1.707-1.707a1 1 0 0 0 -.707-.293h-42a1 1 0 0 0 -1 1v54a5.006 5.006 0 0 0 5 5h50a5.006 5.006 0 0 0 5-5v-49a1 1 0 0 0 -1-1zm-15-1.586 8.586 8.586h-8.586zm10 54.586h-49a3 3 0 0 1 -3-3v-53h40v11a1 1 0 0 0 1 1h11zm0-47.414-6.586-6.586h6.586zm4 44.414a3 3 0 0 1 -2 2.816v-50.816h2z"/><path d="m8 8h.307l3 8h3.693v-10h-2v8h-.307l-3-8h-3.693v10h2z"/><path d="m25 16h2a1 1 0 0 0 .929-.628l1.071-2.68 1.071 2.68a1 1 0 0 0 .929.628h2a1 1 0 0 0 1-1v-9h-2v8h-.323l-1.748-4.372a1 1 0 0 0 -1.858 0l-1.748 4.372h-.323v-8h-2v9a1 1 0 0 0 1 1z"/><path d="m22 14h-3v-2h3v-2h-3v-2h3v-2h-5v10h5z"/><path d="m42 15v-4a1 1 0 0 0 -1-1h-3v-2h4v-2h-5a1 1 0 0 0 -1 1v4a1 1 0 0 0 1 1h3v2h-4v2h5a1 1 0 0 0 1-1z"/><path d="m6 18h48v2h-48z"/><path d="m43 23a11 11 0 1 0 11 11 11.013 11.013 0 0 0 -11-11zm-2.608 2.388a17.313 17.313 0 0 0 -2.637 4.612h-2.8a9.036 9.036 0 0 1 5.437-4.612zm-6.392 8.612a8.971 8.971 0 0 1 .232-2h2.968a10.251 10.251 0 0 0 0 4h-2.968a8.971 8.971 0 0 1 -.232-2zm.95 4h2.805a17.313 17.313 0 0 0 2.637 4.612 9.036 9.036 0 0 1 -5.442-4.612zm7.05 3.414a16.022 16.022 0 0 1 -2.084-3.414h2.084zm0-5.414h-2.759a8.385 8.385 0 0 1 0-4h2.759zm0-6h-2.081a16.176 16.176 0 0 1 2.081-3.408zm2-3.414a16.022 16.022 0 0 1 2.084 3.414h-2.084zm0 5.414h2.759a8.385 8.385 0 0 1 0 4h-2.759zm0 6h2.081a16.176 16.176 0 0 1 -2.081 3.408zm1.606 4.614a17.324 17.324 0 0 0 2.639-4.614h2.815a9.044 9.044 0 0 1 -5.454 4.614zm6.394-8.614a8.971 8.971 0 0 1 -.233 2h-2.967a10.251 10.251 0 0 0 0-4h2.964a8.971 8.971 0 0 1 .236 2zm-3.755-4a17.324 17.324 0 0 0 -2.639-4.614 9.044 9.044 0 0 1 5.454 4.614z"/><path d="m30 23h-24v14h24zm-2 12h-20v-10h20z"/><path d="m44 47h10v2h-10z"/><path d="m44 55h10v2h-10z"/><path d="m44 51h8v2h-8z"/><path d="m20 47h22v2h-22z"/><path d="m20 51h6v2h-6z"/><path d="m28 51h2v2h-2z"/><path d="m32 51h3v2h-3z"/><path d="m37 51h5v2h-5z"/><path d="m20 55h22v2h-22z"/><path d="m6 51h12v2h-12z"/><path d="m6 47h12v2h-12z"/><path d="m6 55h12v2h-12z"/><path d="m6 43h27v2h-27z"/><path d="m6 39h24v2h-24z"/></svg>