<svg xmlns="http://www.w3.org/2000/svg" version="1.1" xmlns:xlink="http://www.w3.org/1999/xlink" width="512" height="512" x="0" y="0" viewBox="0 0 64 64" style="enable-background:new 0 0 512 512" xml:space="preserve"><g><path d="M61 7h-3V5a1 1 0 0 0-1-1h-9.586l-1.707-1.707A1 1 0 0 0 45 2H3a1 1 0 0 0-1 1v54a5.006 5.006 0 0 0 5 5h50a5.006 5.006 0 0 0 5-5V8a1 1 0 0 0-1-1zM46 5.414 54.586 14H46zM56 60H7a3 3 0 0 1-3-3V4h40v11a1 1 0 0 0 1 1h11zm0-47.414L49.414 6H56zM60 57a3 3 0 0 1-2 2.816V9h2z" fill="#bb1e1e" opacity="1" data-original="#000000"></path><path d="M8 8h.307l3 8H15V6h-2v8h-.307l-3-8H6v10h2zM25 16h2a1 1 0 0 0 .929-.628L29 12.692l1.071 2.68A1 1 0 0 0 31 16h2a1 1 0 0 0 1-1V6h-2v8h-.323l-1.748-4.372a1 1 0 0 0-1.858 0L26.323 14H26V6h-2v9a1 1 0 0 0 1 1zM22 14h-3v-2h3v-2h-3V8h3V6h-5v10h5zM42 15v-4a1 1 0 0 0-1-1h-3V8h4V6h-5a1 1 0 0 0-1 1v4a1 1 0 0 0 1 1h3v2h-4v2h5a1 1 0 0 0 1-1zM6 18h48v2H6zM43 23a11 11 0 1 0 11 11 11.013 11.013 0 0 0-11-11zm-2.608 2.388A17.313 17.313 0 0 0 37.755 30h-2.8a9.036 9.036 0 0 1 5.437-4.612zM34 34a8.971 8.971 0 0 1 .232-2H37.2a10.251 10.251 0 0 0 0 4h-2.968A8.971 8.971 0 0 1 34 34zm.95 4h2.805a17.313 17.313 0 0 0 2.637 4.612A9.036 9.036 0 0 1 34.95 38zM42 41.414A16.022 16.022 0 0 1 39.916 38H42zM42 36h-2.759a8.385 8.385 0 0 1 0-4H42zm0-6h-2.081A16.176 16.176 0 0 1 42 26.592zm2-3.414A16.022 16.022 0 0 1 46.084 30H44zM44 32h2.759a8.385 8.385 0 0 1 0 4H44zm0 6h2.081A16.176 16.176 0 0 1 44 41.408zm1.606 4.614A17.324 17.324 0 0 0 48.245 38h2.815a9.044 9.044 0 0 1-5.454 4.614zM52 34a8.971 8.971 0 0 1-.233 2H48.8a10.251 10.251 0 0 0 0-4h2.964A8.971 8.971 0 0 1 52 34zm-3.755-4a17.324 17.324 0 0 0-2.639-4.614A9.044 9.044 0 0 1 51.06 30zM30 23H6v14h24zm-2 12H8V25h20zM44 47h10v2H44zM44 55h10v2H44zM44 51h8v2h-8zM20 47h22v2H20zM20 51h6v2h-6zM28 51h2v2h-2zM32 51h3v2h-3zM37 51h5v2h-5zM20 55h22v2H20zM6 51h12v2H6zM6 47h12v2H6zM6 55h12v2H6zM6 43h27v2H6zM6 39h24v2H6z" fill="#bb1e1e" opacity="1" data-original="#000000"></path></g></svg>